<svg xmlns="http://www.w3.org/2000/svg" viewBox="0 0 30 30"><defs><style>.cls-1{fill:none;}.cls-2{fill:#00458f;}.cls-3{fill:#fff;}.cls-4{fill:#cc3440;}</style></defs><g id="图层_2" data-name="图层 2"><g id="图层_1-2" data-name="图层 1"><rect class="cls-1" width="30" height="30"/><path class="cls-2" d="M3,23H27V7H3Z"/><path class="cls-3" d="M27,12.6h-9.6V7h-4.8v5.6H3v4.8h9.59V23h4.8V17.4H27Z"/><path class="cls-3" d="M27,21.15,5.74,7H3V8.86L24.21,23H27Z"/><path class="cls-3" d="M3,21.15,24.23,7H27V8.86L5.77,23H3Z"/><path class="cls-4" d="M27,13.61H16.39V7H13.6v6.61H3v2.78H13.6V23h2.79V16.39H27Z"/><path class="cls-4" d="M27,23V21.69L20.54,17.4h-1.9L27,23ZM27,7H25.08l-7.69,5.12v.47h1.18ZM11.34,17.4,3,23v0H4.82l7.78-5.16V17.4ZM3,7V8.27L9.48,12.6H11.4Z"/></g></g></svg>