<svg xmlns="http://www.w3.org/2000/svg" viewBox="0 0 30 30"><defs><style>.cls-1{fill:none;}.cls-2{fill:#fff;}.cls-3{fill:#cc303c;}.cls-4{fill:#005c9e;}.cls-5{fill:#231815;}</style></defs><g id="图层_2" data-name="图层 2"><g id="图层_1-2" data-name="图层 1"><rect class="cls-1" width="30" height="30"/><path class="cls-2" d="M3,7H27V23H3Z"/><path class="cls-3" d="M18.91,14.64a3.93,3.93,0,0,1-3.57,4.27h0a3.94,3.94,0,1,1,3.57-4.28Z"/><path class="cls-4" d="M11.62,13a2,2,0,0,0,.63,2.68l0,0A2,2,0,0,0,15,15a2,2,0,0,1,3.38,2A4,4,0,0,1,13,18.34,3.89,3.89,0,0,1,11.58,13l0-.06Z"/><path class="cls-5" d="M6.6,11.83,8.82,8.56l.5.34L7.11,12.17Zm.8.53L9.61,9.09l.51.34L7.91,12.7Zm.78.54.51.33L10.91,10l-.52-.35Zm12.08,5.37,1-1.52.5.34-1,1.52-.51-.34Zm-1.19,1.78,1-1.52.51.34-1,1.52Zm2-1.24,1-1.52.5.35-1,1.52-.5-.35Zm-1.18,1.76.52.34,1-1.52-.51-.34-1,1.52Zm2-1.23,1-1.52.5.35-1,1.52-.51-.35ZM20.64,21.1l1-1.52.51.34-1,1.52-.51-.34Zm1.44-8.4.51-.33L20.38,9.09l-.52.34ZM20.64,8.89l.51-.34,1,1.52-.51.34-1-1.52Zm1.2,1.77.51-.34,1,1.52-.51.34ZM19.07,10l.5-.34,1,1.52-.51.34Zm1.18,1.75.51-.34,1,1.52-.51.34ZM8.17,17.1l.51-.34L10.89,20l-.51.34ZM6.61,18.16l.51-.34,2.2,3.27-.5.34Zm.78-.51.51-.34,1,1.52-.5.34-1-1.52ZM9.6,20.91l.52-.34-1-1.52-.51.34Z"/></g></g></svg>